<!DOCTYPE svg PUBLIC "-//W3C//DTD SVG 1.1//EN" "http://www.w3.org/Graphics/SVG/1.1/DTD/svg11.dtd">
<!-- Uploaded to: SVG Repo, www.svgrepo.com, Transformed by: SVG Repo Mixer Tools -->
<svg version="1.1" id="Layer_1" xmlns="http://www.w3.org/2000/svg" xmlns:xlink="http://www.w3.org/1999/xlink" viewBox="0 0 512 512" xml:space="preserve" width="800px" height="800px" fill="#000000" stroke="#000000" stroke-width="2.56">
<g id="SVGRepo_bgCarrier" stroke-width="0"/>
<g id="SVGRepo_tracerCarrier" stroke-linecap="round" stroke-linejoin="round"/>
<g id="SVGRepo_iconCarrier"> <path style="fill:#ff8d01;" d="M263.581,81.686c-10.751,0-19.466-8.716-19.466-19.466c0-12.84-10.447-23.287-23.287-23.287 c-10.751,0-19.466-8.716-19.466-19.466S210.077,0,220.828,0c34.309,0,62.22,27.911,62.22,62.22 C283.047,72.97,274.331,81.686,263.581,81.686z"/> <path style="fill:#ff9c07;" d="M256.03,80.168c-7.001-2.949-11.916-9.875-11.916-17.948c0-12.84-10.447-23.287-23.287-23.287 c-10.751,0-19.466-8.716-19.466-19.466S210.077,0,220.828,0c13.092,0,25.252,4.065,35.286,10.997L256.03,80.168z"/> <path style="fill:#333333;" d="M67.021,156.999h382.406c7.168,0,12.978,5.81,12.978,12.978v235.257 c0,7.168-5.81,12.978-12.978,12.978H67.021c-7.168,0-12.978-5.81-12.978-12.978V169.976 C54.044,162.809,59.854,156.999,67.021,156.999z"/> <path style="fill:#9e5035;" d="M92.112,441.825c0.561-1.817,0.866-3.748,0.866-5.749l0,0h330.496l0,0 c0,10.751,8.716,19.466,19.466,19.466s19.466-8.716,19.466-19.466v-84.034H92.112V441.825z"/> <path style="fill:#af593b;" d="M92.112,441.825c0.561-1.817,0.866-3.748,0.866-5.749l0,0h163.024v-84.034H92.112V441.825z"/> <circle style="fill:#be1c19;" cx="263.574" cy="104.973" r="49.535"/> <path style="fill:#83432D;" d="M92.112,154.717H73.51c-10.751,0-19.466,8.716-19.466,19.466v84.034h38.067v-103.5H92.112z"/> <rect x="92.112" y="258.215" style="fill:#be1c19;" width="370.289" height="93.828"/> <rect x="54.044" y="258.215" style="fill:#83432D;" width="38.067" height="93.828"/> <path style="fill:#ff8d01;" d="M462.405,258.219v-84.034c0-10.751-8.716-19.466-19.466-19.466H92.112v103.5L462.405,258.219 L462.405,258.219z"/> <rect x="92.112" y="154.719" style="fill:#ff9c07;" width="163.894" height="103.496"/> <path style="fill:#83432D;" d="M54.044,352.041v84.034c0,10.751,8.716,19.466,19.466,19.466c8.749,0,16.149-5.774,18.601-13.717 v-89.783L54.044,352.041L54.044,352.041z"/> <path style="fill:#252525;" d="M491.264,420.009H20.736c-10.751,0-19.466,8.716-19.466,19.466s8.716,19.466,19.466,19.466h53.216 l6.789,12.792C93.886,496.51,119.641,512,147.69,512h108.311h108.311c28.048,0,53.804-15.49,66.95-40.267l6.787-12.792h53.216 c10.751,0,19.466-8.716,19.466-19.466S502.015,420.009,491.264,420.009z"/> <path style="fill:#333333;" d="M255.999,458.941v-38.933H20.736c-10.751,0-19.466,8.716-19.466,19.466s8.716,19.466,19.466,19.466 h53.216l6.789,12.792C93.886,496.51,119.641,512,147.69,512h108.311L255.999,458.941z"/> <g> <rect x="92.112" y="258.215" style="fill:#ed231f;" width="163.894" height="93.828"/> <path style="fill:#ed231f;" d="M256.115,153.954c-23.819-3.6-42.075-24.159-42.075-48.981c0-24.783,18.197-45.315,41.96-48.964 L256.115,153.954z"/> </g> </g>
</svg>