<!DOCTYPE svg PUBLIC "-//W3C//DTD SVG 1.1//EN" "http://www.w3.org/Graphics/SVG/1.1/DTD/svg11.dtd">
<!-- Uploaded to: SVG Repo, www.svgrepo.com, Transformed by: SVG Repo Mixer Tools -->
<svg height="800px" width="800px" version="1.1" id="Layer_1" xmlns="http://www.w3.org/2000/svg" xmlns:xlink="http://www.w3.org/1999/xlink" viewBox="-51.2 -51.2 614.40 614.40" xml:space="preserve" fill="#252525" stroke="#252525" stroke-width="2.56" transform="rotate(0)">
<g id="SVGRepo_bgCarrier" stroke-width="0" transform="translate(0,0), scale(1)"/>
<g id="SVGRepo_tracerCarrier" stroke-linecap="round" stroke-linejoin="round" stroke="#CCCCCC" stroke-width="4.096"/>
<g id="SVGRepo_iconCarrier"> <path style="fill:#60775d;" d="M430.688,174.514h-31.3v-33.574H81.137v113.312c0,87.786,71.165,158.951,158.951,158.951h0.35 c57.569,0,107.989-30.606,135.879-76.433c1.184,0.24,2.408,0.367,3.662,0.367h50.71c44.835,0,81.312-36.476,81.312-81.312 C512,210.99,475.524,174.514,430.688,174.514z M430.688,300.415H392.57c4.427-14.61,6.818-30.107,6.818-46.164v-43.017h31.3 c24.587,0,44.591,20.003,44.591,44.589C475.279,280.412,455.275,300.415,430.688,300.415z"/> <path style="fill:#71866f;" d="M240.438,413.202h-0.35c-87.786,0-158.951-71.165-158.951-158.951V140.939h159.126 C240.262,140.939,240.438,411.556,240.438,413.202z"/> <path style="fill:#DE9833;" d="M81.137,142.163c0-63.546,51.514-115.06,115.06-115.06c30.203,0,57.684,11.644,78.211,30.679 c10.365-4.034,21.641-6.274,33.452-6.274c50.549,0,91.527,40.588,91.527,90.655"/> <path style="fill:#F3A938;" d="M81.137,142.163c0-63.546,51.514-115.06,115.06-115.06c15.61,0,30.493,3.11,44.066,8.745 l0.175,106.315H81.137z"/> <path style="fill:#252525 ;" d="M462.163,398.13H18.361C8.221,398.13,0,406.351,0,416.491s8.221,18.361,18.361,18.361h50.193 l6.403,12.065c12.4,23.369,36.692,37.98,63.147,37.98h102.159h102.159c26.455,0,50.748-14.61,63.147-37.98l6.402-12.065h50.193 c10.14,0,18.361-8.221,18.361-18.361S472.303,398.13,462.163,398.13z"/> <path style="fill:#333333;" d="M240.262,434.852V398.13H18.361C8.221,398.13,0,406.351,0,416.491s8.221,18.361,18.361,18.361h50.193 l6.403,12.065c12.4,23.369,36.692,37.98,63.147,37.98h102.159L240.262,434.852z"/> </g>
</svg>