<!DOCTYPE svg PUBLIC "-//W3C//DTD SVG 1.1//EN" "http://www.w3.org/Graphics/SVG/1.1/DTD/svg11.dtd">
<!-- Uploaded to: SVG Repo, www.svgrepo.com, Transformed by: SVG Repo Mixer Tools -->
<svg height="800px" width="800px" version="1.1" id="Layer_1" xmlns="http://www.w3.org/2000/svg" xmlns:xlink="http://www.w3.org/1999/xlink" viewBox="0 0 512 512" xml:space="preserve" fill="#000000" stroke="#000000" stroke-width="2.56">
<g id="SVGRepo_bgCarrier" stroke-width="0"/>
<g id="SVGRepo_tracerCarrier" stroke-linecap="round" stroke-linejoin="round"/>
<g id="SVGRepo_iconCarrier"> <circle style="fill:#8c472f;" cx="318.699" cy="200.268" r="193.301"/> <path style="fill:#af593b;" d="M256.011,383.188c-75.994-26.035-130.623-98.096-130.623-182.917 c0-84.818,54.627-156.877,130.618-182.914L256.011,383.188z"/> <circle style="fill:#71866f;" cx="193.301" cy="311.731" r="193.301"/> <circle style="fill:#60775d;" cx="193.301" cy="311.731" r="193.301"/> <path style="fill:#71866f;" d="M256.001,494.639c-19.66,6.737-40.751,10.393-62.695,10.393C86.546,505.034,0,418.487,0,311.727 s86.546-193.306,193.306-193.306c21.946,0,43.038,3.657,62.699,10.396L256.001,494.639z"/> <g> <circle style="fill:#af593b;" cx="344.71" cy="95.144" r="26.011"/> <circle style="fill:#af593b;" cx="443.277" cy="185.812" r="26.011"/> <circle style="fill:#af593b;" cx="193.301" cy="300.176" r="26.011"/> <circle style="fill:#af593b;" cx="165.099" cy="408.751" r="26.011"/> <circle style="fill:#af593b;" cx="173.861" cy="211.822" r="26.011"/> <circle style="fill:#af593b;" cx="88.984" cy="282.01" r="26.011"/> </g> <circle style="fill:#8c472f;" cx="310.157" cy="300.176" r="26.011"/> </g>
</svg>