<!DOCTYPE svg PUBLIC "-//W3C//DTD SVG 1.1//EN" "http://www.w3.org/Graphics/SVG/1.1/DTD/svg11.dtd">
<!-- Uploaded to: SVG Repo, www.svgrepo.com, Transformed by: SVG Repo Mixer Tools -->
<svg height="800px" width="800px" version="1.1" id="Layer_1" xmlns="http://www.w3.org/2000/svg" xmlns:xlink="http://www.w3.org/1999/xlink" viewBox="0 0 512 512" xml:space="preserve" fill="#000000" stroke="#000000" stroke-width="2.56">
<g id="SVGRepo_bgCarrier" stroke-width="0"/>
<g id="SVGRepo_tracerCarrier" stroke-linecap="round" stroke-linejoin="round"/>
<g id="SVGRepo_iconCarrier"> <path style="fill:#60775d;" d="M345.83,512l-182.579-0.605c-6.455-0.022-11.869-4.879-12.588-11.293l-48.113-429.25l306.901,1.018 l-50.958,428.92C357.731,507.2,352.285,512.02,345.83,512z"/> <path style="fill:#71866f;" d="M256.002,511.701l-92.75-0.308c-6.455-0.022-11.869-4.879-12.588-11.293L102.551,70.852 l153.453,0.508L256.002,511.701z"/> <path style="fill:#ff8d01;" d="M409.452,71.887c0-31.997-25.939-57.936-57.936-57.936c-14.761,0-28.225,5.53-38.456,14.619 C299.936,11.218,279.128,0,255.694,0c-23.29,0-43.981,11.085-57.118,28.256c-10.186-8.9-23.504-14.304-38.092-14.304 c-31.997,0-57.936,25.939-57.936,57.936"/> <polygon style="fill:#8c472f;" points="409.452,71.887 102.549,71.887 114.873,178.636 397.128,178.636 "/> <polygon style="fill:#af593b;" points="256.002,71.887 102.549,71.887 114.873,178.636 256.002,178.636 "/> <path style="fill:#ff9c07;" d="M255.694,0c-23.29,0-43.981,11.085-57.118,28.256c-10.186-8.9-23.504-14.304-38.092-14.304 c-31.997,0-57.936,25.939-57.936,57.936h153.453L255.694,0z"/> </g>
</svg>