<!DOCTYPE svg PUBLIC "-//W3C//DTD SVG 1.1//EN" "http://www.w3.org/Graphics/SVG/1.1/DTD/svg11.dtd">
<!-- Uploaded to: SVG Repo, www.svgrepo.com, Transformed by: SVG Repo Mixer Tools -->
<svg height="800px" width="800px" version="1.1" id="Layer_1" xmlns="http://www.w3.org/2000/svg" xmlns:xlink="http://www.w3.org/1999/xlink" viewBox="0 0 512 512" xml:space="preserve" fill="#000000" stroke="#000000" stroke-width="2.56">
<g id="SVGRepo_bgCarrier" stroke-width="0"/>
<g id="SVGRepo_tracerCarrier" stroke-linecap="round" stroke-linejoin="round"/>
<g id="SVGRepo_iconCarrier"> <path style="fill:#ff8d01;" d="M370.106,512H141.893c-16.719,0-30.384-13.34-30.786-30.054l-4.312-179.104l-22.477-85.938 L82.994,14.559C82.942,6.534,89.434,0,97.459,0h317.082c8.024,0,14.514,6.529,14.465,14.553l-1.219,200.516l-22.528,86.68 l-4.366,180.201C400.487,498.663,386.823,512,370.106,512z"/> <path style="fill:#ff9c07;" d="M255.999,512H141.893c-16.719,0-30.384-13.34-30.786-30.054l-4.312-179.104l-22.477-85.938 L82.994,14.559C82.942,6.534,89.434,0,97.459,0h158.54V512z"/> <path style="fill:#71866f;" d="M210.435,303.049c-11.983,0-21.697,9.715-21.697,21.697V512h43.395V324.747 C232.132,312.764,222.417,303.049,210.435,303.049z"/> <path style="fill:#60775d;" d="M301.558,303.049c-11.983,0-21.697,9.715-21.697,21.697V512h43.395V324.747 C323.256,312.764,313.541,303.049,301.558,303.049z"/> </g>
</svg>