<!DOCTYPE svg PUBLIC "-//W3C//DTD SVG 1.1//EN" "http://www.w3.org/Graphics/SVG/1.1/DTD/svg11.dtd">
<!-- Uploaded to: SVG Repo, www.svgrepo.com, Transformed by: SVG Repo Mixer Tools -->
<svg height="800px" width="800px" version="1.1" id="Layer_1" xmlns="http://www.w3.org/2000/svg" xmlns:xlink="http://www.w3.org/1999/xlink" viewBox="0 0 512 512" xml:space="preserve" fill="#000000" stroke="#000000" stroke-width="2.56">
<g id="SVGRepo_bgCarrier" stroke-width="0"/>
<g id="SVGRepo_tracerCarrier" stroke-linecap="round" stroke-linejoin="round"/>
<g id="SVGRepo_iconCarrier"> <path style="fill:#60775d;" d="M300.502,352.423h-32.135c-9.334,0-16.901-7.567-16.901-16.901c0-9.334,7.567-16.901,16.901-16.901 h32.135c36.967,0,67.041-30.075,67.041-67.041s-30.075-67.04-67.041-67.04h-32.135c-9.334,0-16.901-7.567-16.901-16.901 s7.567-16.901,16.901-16.901h32.135c55.605,0,100.843,45.237,100.843,100.842S356.106,352.423,300.502,352.423z"/> <path style="fill:#252525;" d="M271.677,466.931h-20.844v-71.488h-76.618v71.488h-20.844c-18.668,0-33.802,15.133-33.802,33.802l0,0 c0,6.223,5.044,11.267,11.267,11.267h163.376c6.223,0,11.267-5.044,11.267-11.267l0,0 C305.479,482.065,290.345,466.931,271.677,466.931z"/> <path style="fill:#60775d;" d="M249.174,401.581h-73.303c-22.231,0-40.766-17.009-42.671-39.159l-22.546-273.41h203.74 l-22.547,273.411C289.942,384.572,271.406,401.581,249.174,401.581z"/> <path style="fill:#ff8d01;" d="M314.393,89.012c0-24.031-17.467-43.971-40.394-47.847C264.041,17.008,240.273,0,212.524,0 s-51.517,17.008-61.475,41.165c-22.928,3.876-40.394,23.816-40.394,47.847"/> <path style="fill:#ff9c07;" d="M212.524,0c-27.75,0-51.517,17.008-61.475,41.165c-22.928,3.876-40.394,23.816-40.394,47.847h101.87 V0z"/> <path style="fill:#333333;" d="M212.524,395.443h-38.309v71.488h-20.844c-18.668,0-33.802,15.133-33.802,33.802l0,0 c0,6.223,5.044,11.267,11.267,11.267h81.688V395.443z"/> <path style="fill:#71866f;" d="M212.524,401.581h-36.651c-22.231,0-40.766-17.009-42.671-39.159l-22.547-273.41h101.87V401.581z"/> </g>
</svg>