<!DOCTYPE svg PUBLIC "-//W3C//DTD SVG 1.1//EN" "http://www.w3.org/Graphics/SVG/1.1/DTD/svg11.dtd">
<!-- Uploaded to: SVG Repo, www.svgrepo.com, Transformed by: SVG Repo Mixer Tools -->
<svg height="800px" width="800px" version="1.1" id="Layer_1" xmlns="http://www.w3.org/2000/svg" xmlns:xlink="http://www.w3.org/1999/xlink" viewBox="0 0 511.999 511.999" xml:space="preserve" fill="#000000" stroke="#000000" stroke-width="2.5599950000000002">
<g id="SVGRepo_bgCarrier" stroke-width="0"/>
<g id="SVGRepo_tracerCarrier" stroke-linecap="round" stroke-linejoin="round"/>
<g id="SVGRepo_iconCarrier"> <path style="fill:#60775d;" d="M396.481,124.37h-13.599H126.189c-7.203,0-13.042,5.839-13.042,13.042v195.539 c0,7.203,5.839,13.042,13.042,13.042h256.693c7.203,0,13.042-5.839,13.042-13.042V309.1h0.557c50.93,0,92.364-41.435,92.364-92.365 S447.41,124.37,396.481,124.37z M396.481,269.972h-0.557V163.495h0.557c29.355,0,53.237,23.883,53.237,53.238 S425.835,269.972,396.481,269.972z"/> <path style="fill:#71866f;" d="M255.999,345.993H126.189c-7.203,0-13.042-5.839-13.042-13.042V137.412 c0-7.203,5.839-13.042,13.042-13.042h129.811V345.993z"/> <path style="fill:#252525;" d="M492.437,295.179H19.563C8.759,295.179,0,303.938,0,314.742c0,10.804,8.759,19.563,19.563,19.563 h53.481l6.821,12.856c13.212,24.9,39.095,40.467,67.284,40.467h108.85h108.85c28.188,0,54.072-15.567,67.284-40.467l6.821-12.856 h53.481c10.804,0,19.563-8.759,19.563-19.563S503.241,295.179,492.437,295.179z"/> <path style="fill:#333333;" d="M19.563,295.179C8.759,295.179,0,303.938,0,314.742c0,10.804,8.759,19.563,19.563,19.563h53.481 l6.821,12.856c13.212,24.9,39.095,40.467,67.284,40.467h108.85v-53.323v-39.127H19.563L19.563,295.179z"/> </g>
</svg>